<svg xmlns="http://www.w3.org/2000/svg" viewBox="0 0 512 512">
  <rect width="512" height="512" fill="#ffffff"/>
  <defs>
    <linearGradient id="leafGreen" x1="100" y1="392" x2="410" y2="112" gradientUnits="userSpaceOnUse">
      <stop offset="0" stop-color="#4b9d2c"/>
      <stop offset="0.55" stop-color="#2f8b1f"/>
      <stop offset="1" stop-color="#66ad3e"/>
    </linearGradient>
  </defs>

  <g fill="url(#leafGreen)">
    <path d="M97 350c18-70 70-107 159-112 89 5 141 42 159 112h-48c-20-47-60-72-111-75-51 3-91 28-111 75H97z"/>
    <path d="M118 350c42-82 111-137 207-166l10 18c-85 25-147 72-185 148H118z"/>
    <path d="M394 350c-42-82-111-137-207-166l-10 18c85 25 147 72 185 148h32z"/>

    <path d="M104 350c10-58-9-95-56-117 54 7 82 41 82 95l-26 22z"/>
    <path d="M408 350c-10-58 9-95 56-117-54 7-82 41-82 95l26 22z"/>

    <path d="M168 257c28-17 39-43 31-78-24 17-35 42-31 78z"/>
    <path d="M343 257c-28-17-39-43-31-78 24 17 35 42 31 78z"/>
    <path d="M209 211c31-5 51-24 62-56-31 5-51 24-62 56z"/>
    <path d="M303 211c-31-5-51-24-62-56 31 5 51 24 62 56z"/>
    <path d="M118 288c-27-13-52-10-76 10 28 10 53 7 76-10z"/>
    <path d="M394 288c27-13 52-10 76 10-28 10-53 7-76-10z"/>
    <path d="M83 273c-12-27-33-42-63-44 15 25 36 40 63 44z"/>
    <path d="M429 273c12-27 33-42 63-44-15 25-36 40-63 44z"/>
    <path d="M134 249c-4-25 6-45 30-60 5 26-5 46-30 60z"/>
    <path d="M378 249c4-25-6-45-30-60-5 26 5 46 30 60z"/>
    <path d="M218 244c22-15 46-14 72 3-23 15-47 14-72-3z"/>
    <path d="M294 244c-22-15-46-14-72 3 23 15 47 14 72-3z"/>
  </g>
</svg>
